<?xml version="1.0" encoding="utf-8"?>
<!-- Generator: Adobe Illustrator 16.0.0, SVG Export Plug-In . SVG Version: 6.00 Build 0)  -->
<!DOCTYPE svg PUBLIC "-//W3C//DTD SVG 1.1//EN" "http://www.w3.org/Graphics/SVG/1.1/DTD/svg11.dtd">
<svg version="1.1" id="Layer_1" xmlns="http://www.w3.org/2000/svg" xmlns:xlink="http://www.w3.org/1999/xlink" x="0px" y="0px"
	 width="360px" height="360px" viewBox="0 0 360 360" enable-background="new 0 0 360 360" xml:space="preserve">
<g>
	<path fill="#666766" d="M3.541,345.846V130.747l37.944-24.872V46.96h89.883l49.749-32.608L230.23,46.96h88.261v58.596
		l37.969,25.206v215.083H3.541z M12.294,337.095H347.71V143.71h-1.366l-164.64,139.405L12.294,142.434V337.095z M50.24,162.325
		l131.126,109.368l0.785-0.682L309.745,162.35V55.714H50.24V162.325z M318.495,155.82l26.315-22.284l-26.315-17.47V155.82z
		 M15.267,133.53l26.218,21.774v-38.956L15.267,133.53z M147.333,46.96h67.072l-33.321-22.122L147.333,46.96z"/>
	<path fill="#FFFFFF" d="M181.113,15.55l48.312,32.077l0.503,0.334h0.604h86.959v57.059v1.073l0.894,0.594l37.075,24.612v213.547
		H4.541V131.287l37.041-24.279l0.904-0.592v-1.081V47.96h88.584h0.597l0.499-0.327L181.113,15.55 M143.983,47.96h6.7h60.408h6.628
		l-5.521-3.666L182.187,24.37l-1.1-0.73l-1.103,0.723l-30.397,19.924L143.983,47.96 M181.38,273.007l1.285-1.117l0.127-0.11
		l127.25-108.369l0.703-0.599v-0.924v-51.096V97.881V56.714v-2h-2h-62.013h-19.445h-93.009h-19.615H51.24h-2v2v41.574v12.858v50.71
		v0.936l0.719,0.6l65.727,54.82l64.386,53.703L181.38,273.007 M317.495,157.977l3.292-2.788l23.653-20.03l2.032-1.72l-2.218-1.472
		l-23.653-15.703l-3.106-2.062v3.729v35.732V157.977 M42.485,157.434v-4.261v-34.975v-3.702l-3.096,2.029L15.85,131.952
		l-2.263,1.483l2.081,1.729l23.539,19.549L42.485,157.434 M11.294,338.095h2H346.71h2v-2V144.71l-0.004-2h-2h-0.733l-0.559,0.474
		L181.698,281.811l-70.296-58.377l0,0l-0.003-0.003l-96.826-80.405l-3.278-2.722v4.261v191.53V338.095 M181.12,13.154L131.069,45.96
		H40.485v59.375L2.541,130.207v216.639H357.46v-216.62l-37.969-25.206V45.96h-88.959L181.12,13.154L181.12,13.154z M150.683,45.96
		l30.397-19.924l30.011,19.924H150.683L150.683,45.96z M181.354,270.38l-64.386-53.703l-65.728-54.82v-50.71V98.288V56.714h63.423
		h19.615h93.009h19.445h62.013v41.167v12.911v51.096l-127.25,108.369L181.354,270.38L181.354,270.38z M319.495,153.663V117.93
		l23.653,15.703L319.495,153.663L319.495,153.663z M40.485,153.173l-23.539-19.549l23.539-15.426V153.173L40.485,153.173z
		 M13.294,336.095v-191.53l96.826,80.405l71.452,59.336l0.14,0.113L346.706,144.71h0.004v191.385H13.294L13.294,336.095z
		 M116.967,216.677l64.386,53.703l0.138-0.123L116.967,216.677L116.967,216.677z M110.121,224.97l71.288,59.472l0.162-0.136
		L110.121,224.97L110.121,224.97z"/>
</g>
<path fill="#EF4223" d="M179.2,213.254c-27.866,0-51.493-20.4-51.493-53.03c0-35.01,24.297-65.262,62.038-65.262
	c29.568,0,49.451,20.73,49.451,49.114c0,25.495-14.28,40.456-30.254,40.456c-6.804,0-13.089-4.59-12.572-14.961h-0.682
	c-5.948,10.027-13.771,14.961-23.966,14.961c-9.855,0-18.354-7.994-18.354-21.421c0-21.07,16.659-40.272,40.284-40.272
	c7.299,0,13.763,1.531,18.176,3.57l-5.769,30.758c-2.556,12.916-0.517,18.871,5.099,19.036c8.663,0.177,18.353-11.385,18.353-31.103
	c0-24.639-14.784-42.318-41.131-42.318c-27.7,0-50.983,21.931-50.983,56.42c0,28.382,18.52,45.887,43.675,45.887
	c9.689,0,18.692-2.038,25.661-5.946l2.721,7.311C200.104,211.38,190.594,213.254,179.2,213.254z"/>
<path fill="#FFFFFF" d="M197.758,133.545c-1.695-0.504-4.589-1.191-8.497-1.191c-14.95,0-27.018,14.102-27.018,30.595
	c0,7.477,3.729,12.915,11.22,12.915c9.854,0,18.857-12.572,20.729-23.117L197.758,133.545z"/>
</svg>
